<svg version="1.1" id="Layer_1" xmlns="http://www.w3.org/2000/svg" xmlns:xlink="http://www.w3.org/1999/xlink" x="0px" y="0px"
	 width="100%" viewBox="0 0 2000 1500" enable-background="new 0 0 2000 1500" xml:space="preserve">
<path fill="#000000" opacity="1.000000" stroke="none" 
	d="
M1010.000000,1501.000000 
	C673.333435,1501.000000 337.166870,1501.000000 1.000226,1501.000000 
	C1.000150,1001.000244 1.000150,501.000488 1.000075,1.000561 
	C667.666199,1.000374 1334.332397,1.000374 2000.999023,1.000187 
	C2000.999268,500.999390 2000.999268,1000.998779 2000.999634,1500.999023 
	C1670.833374,1501.000000 1340.666626,1501.000000 1010.000000,1501.000000 
M725.880554,731.024292 
	C725.880554,731.024292 725.872620,731.114624 726.798645,731.340210 
	C728.936829,730.556580 731.021545,729.549255 733.221436,729.023743 
	C756.819519,723.385986 780.432434,717.809692 804.047852,712.244629 
	C862.608276,698.444885 921.173950,684.666992 979.733032,670.861511 
	C989.517700,668.554688 999.280212,666.153564 1009.047729,663.797241 
	C1000.864624,616.697449 980.777710,576.103882 948.684937,541.595154 
	C921.782715,512.667664 888.575745,493.074768 852.458130,477.948792 
	C804.913818,458.037292 754.881592,449.560669 703.865723,446.253967 
	C648.549744,442.668488 593.348083,443.601257 538.484924,452.850037 
	C494.231171,460.310333 451.753479,473.065857 412.486542,495.124603 
	C355.092041,527.366821 314.436401,573.639343 295.760986,637.588440 
	C283.489594,679.608643 282.777039,722.301514 290.613983,765.170715 
	C297.469879,802.673767 311.627747,837.181152 334.627808,867.788696 
	C365.863861,909.356262 407.493652,936.214050 456.101532,953.062927 
	C490.630066,965.031555 526.293579,971.132080 562.701721,972.753296 
	C594.038391,974.148682 625.316956,973.347473 656.322876,967.812256 
	C659.610352,967.225464 661.765869,966.413635 662.809204,962.508118 
	C677.729736,906.651123 692.857788,850.849487 707.977722,795.045898 
	C713.227661,775.669861 718.592651,756.324951 724.410889,736.987061 
	C724.579529,736.991455 724.748230,736.995850 725.106873,737.920593 
	C725.106873,810.848083 725.106873,883.775513 725.106873,956.695190 
	C818.333130,956.695190 910.917603,956.695190 1003.586914,956.695190 
	C1003.586914,881.360352 1003.586914,806.294861 1003.586914,730.923279 
	C1001.331604,730.923279 999.355896,730.923279 997.380188,730.923279 
	C909.549133,730.922913 821.718140,730.922424 733.887085,730.922668 
	C731.219238,730.922668 728.551453,730.929810 725.880554,731.024292 
M1336.500000,956.964661 
	C1365.164062,956.964539 1393.828003,956.969727 1422.492065,956.963135 
	C1461.948242,956.954041 1501.032837,953.672974 1538.914673,941.903198 
	C1590.192017,925.971741 1634.633911,899.418335 1667.193237,855.725891 
	C1708.785767,799.911316 1722.687500,736.840942 1711.902344,668.780212 
	C1698.942383,586.995667 1654.118164,528.234802 1578.777954,493.463745 
	C1533.430786,472.535065 1485.125610,464.463165 1435.590942,464.309357 
	C1302.773560,463.897095 1169.954468,464.111420 1037.135986,464.085388 
	C1036.189697,464.085205 1035.243408,464.204895 1034.300781,464.268372 
	C1034.300781,628.646729 1034.300781,792.692444 1034.300781,956.964661 
	C1134.899902,956.964661 1235.199951,956.964661 1336.500000,956.964661 
z"/>
<path fill="#FFFFFF" opacity="1.000000" stroke="none" 
	d="
M1336.000000,956.964661 
	C1235.199951,956.964661 1134.899902,956.964661 1034.300781,956.964661 
	C1034.300781,792.692444 1034.300781,628.646729 1034.300781,464.268372 
	C1035.243408,464.204895 1036.189697,464.085205 1037.135986,464.085388 
	C1169.954468,464.111420 1302.773560,463.897095 1435.590942,464.309357 
	C1485.125610,464.463165 1533.430786,472.535065 1578.777954,493.463745 
	C1654.118164,528.234802 1698.942383,586.995667 1711.902344,668.780212 
	C1722.687500,736.840942 1708.785767,799.911316 1667.193237,855.725891 
	C1634.633911,899.418335 1590.192017,925.971741 1538.914673,941.903198 
	C1501.032837,953.672974 1461.948242,956.954041 1422.492065,956.963135 
	C1393.828003,956.969727 1365.164062,956.964539 1336.000000,956.964661 
M1416.376221,667.096863 
	C1403.385010,656.223450 1387.909790,653.307922 1371.596924,653.263550 
	C1347.113037,653.196960 1322.628784,653.240234 1298.144775,653.260437 
	C1296.876343,653.261536 1295.608154,653.483887 1294.366333,653.600708 
	C1294.366333,691.725464 1294.366333,729.475891 1294.366333,767.127747 
	C1294.879272,767.380432 1295.166870,767.646851 1295.452759,767.645264 
	C1324.755493,767.481812 1354.120605,768.411804 1383.341064,766.769043 
	C1407.416260,765.415588 1425.094482,752.337769 1432.836548,728.900208 
	C1440.583008,705.449646 1435.217896,684.632996 1416.376221,667.096863 
z"/>
<path fill="#FFFFFF" opacity="1.000000" stroke="none" 
	d="
M723.905151,736.965820 
	C718.592651,756.324951 713.227661,775.669861 707.977722,795.045898 
	C692.857788,850.849487 677.729736,906.651123 662.809204,962.508118 
	C661.765869,966.413635 659.610352,967.225464 656.322876,967.812256 
	C625.316956,973.347473 594.038391,974.148682 562.701721,972.753296 
	C526.293579,971.132080 490.630066,965.031555 456.101532,953.062927 
	C407.493652,936.214050 365.863861,909.356262 334.627808,867.788696 
	C311.627747,837.181152 297.469879,802.673767 290.613983,765.170715 
	C282.777039,722.301514 283.489594,679.608643 295.760986,637.588440 
	C314.436401,573.639343 355.092041,527.366821 412.486542,495.124603 
	C451.753479,473.065857 494.231171,460.310333 538.484924,452.850037 
	C593.348083,443.601257 648.549744,442.668488 703.865723,446.253967 
	C754.881592,449.560669 804.913818,458.037292 852.458130,477.948792 
	C888.575745,493.074768 921.782715,512.667664 948.684937,541.595154 
	C980.777710,576.103882 1000.864624,616.697449 1009.047729,663.797241 
	C999.280212,666.153564 989.517700,668.554688 979.733032,670.861511 
	C921.173950,684.666992 862.608276,698.444885 804.047852,712.244629 
	C780.432434,717.809692 756.819519,723.385986 733.221436,729.023743 
	C731.021545,729.549255 728.936829,730.556580 726.170410,730.725098 
	C726.218445,727.026306 726.927185,723.949280 727.565674,720.857788 
	C733.858582,690.388916 720.494568,665.909790 691.306396,654.986572 
	C672.364868,647.897949 652.637573,647.260498 632.722717,648.660828 
	C616.572083,649.796509 601.390320,653.631897 587.513123,662.535034 
	C562.190735,678.781067 554.320068,720.029236 583.643005,742.065186 
	C591.161926,747.715637 600.259644,751.872009 609.252380,754.827209 
	C627.547791,760.839478 646.624695,760.559753 665.642578,759.043396 
	C687.825317,757.274780 708.819641,752.697571 723.905151,733.449646 
	C723.905151,735.018677 723.905151,735.992249 723.905151,736.965820 
z"/>
<path fill="#FFFFFF" opacity="1.000000" stroke="none" 
	d="
M725.883606,730.933655 
	C728.551453,730.929810 731.219238,730.922668 733.887085,730.922668 
	C821.718140,730.922424 909.549133,730.922913 997.380188,730.923279 
	C999.355896,730.923279 1001.331604,730.923279 1003.586914,730.923279 
	C1003.586914,806.294861 1003.586914,881.360352 1003.586914,956.695190 
	C910.917603,956.695190 818.333130,956.695190 725.106873,956.695190 
	C725.106873,883.775513 725.106873,810.848083 725.105103,737.029846 
	C725.363403,734.403931 725.623535,732.668823 725.883606,730.933655 
z"/>
<path fill="#010101" opacity="1.000000" stroke="none" 
	d="
M725.882080,730.979004 
	C725.623535,732.668823 725.363403,734.403931 725.010132,736.569702 
	C724.748230,736.995850 724.579529,736.991455 724.158020,736.976440 
	C723.905151,735.992249 723.905151,735.018677 723.905151,733.449646 
	C708.819641,752.697571 687.825317,757.274780 665.642578,759.043396 
	C646.624695,760.559753 627.547791,760.839478 609.252380,754.827209 
	C600.259644,751.872009 591.161926,747.715637 583.643005,742.065186 
	C554.320068,720.029236 562.190735,678.781067 587.513123,662.535034 
	C601.390320,653.631897 616.572083,649.796509 632.722717,648.660828 
	C652.637573,647.260498 672.364868,647.897949 691.306396,654.986572 
	C720.494568,665.909790 733.858582,690.388916 727.565674,720.857788 
	C726.927185,723.949280 726.218445,727.026306 725.707397,730.612305 
	C725.872620,731.114624 725.880554,731.024292 725.882080,730.979004 
z"/>
<path fill="#020202" opacity="1.000000" stroke="none" 
	d="
M1416.646973,667.326660 
	C1435.217896,684.632996 1440.583008,705.449646 1432.836548,728.900208 
	C1425.094482,752.337769 1407.416260,765.415588 1383.341064,766.769043 
	C1354.120605,768.411804 1324.755493,767.481812 1295.452759,767.645264 
	C1295.166870,767.646851 1294.879272,767.380432 1294.366333,767.127747 
	C1294.366333,729.475891 1294.366333,691.725464 1294.366333,653.600708 
	C1295.608154,653.483887 1296.876343,653.261536 1298.144775,653.260437 
	C1322.628784,653.240234 1347.113037,653.196960 1371.596924,653.263550 
	C1387.909790,653.307922 1403.385010,656.223450 1416.646973,667.326660 
z"/>
</svg>