<?xml version="1.0" standalone="no"?>
<!DOCTYPE svg PUBLIC "-//W3C//DTD SVG 20010904//EN" "http://www.w3.org/TR/2001/REC-SVG-20010904/DTD/svg10.dtd">
<svg version="1.0" xmlns="http://www.w3.org/2000/svg" width="300.000000pt" height="225.000000pt" viewBox="0 0 300.000000 225.000000" preserveAspectRatio="xMidYMid meet">
<g transform="translate(0.000000,225.000000) scale(0.100000,-0.100000)" fill="white" stroke="white" stroke-width="8" fill-rule="nonzero">
<path d="M854 1620 c-209 -23 -362 -119 -432 -267 -24 -52 -27 -69 -27 -168 1 -138 22 -199 100 -284 93 -99 221 -150 381 -151 85 0 127 13 149 47 l17 25 25 -24 c24 -23 28 -23 221 -22 108 1 213 1 232 2 19 0 166 -1 325 -4 181 -3 322 -1 375 6 189 24 322 129 371 292 54 177 -23 377 -178 460 -110 60 -136 63 -516 63 l-349 0 -19 -24 c-15 -18 -19 -39 -19 -92 0 -38 -2 -69 -4 -69 -3 0 -31 26 -63 58 -67 68 -160 116 -261 137 -89 18 -240 25 -328 15z m323 -56 c171 -36 302 -148 329 -280 l6 -30 -169 -38 c-214 -48 -243 -56 -243 -61 0 -3 90 -4 201 -2 l200 2 0 -168 1 -168 -207 0 -207 0 1 204 1 204 -26 24 c-22 20 -35 24 -94 24 -59 0 -72 -3 -95 -25 -35 -32 -32 -84 6 -113 36 -26 104 -32 156 -14 l43 15 -7 -27 c-62 -252 -80 -306 -104 -312 -42 -12 -152 -9 -222 6 -135 28 -233 102 -286 214 -23 50 -26 68 -26 166 0 106 1 112 34 173 53 98 136 160 266 198 120 34 299 38 442 8z m1135 -32 c163 -54 258 -179 258 -342 0 -152 -74 -265 -220 -334 l-65 -31 -230 -3 c-126 -1 -292 -3 -368 -5 l-137 -2 0 373 0 374 348 -4 c323 -4 352 -6 414 -26z m-1274 -320 c6 -8 12 -19 12 -23 0 -32 -119 -45 -148 -15 -21 20 -7 47 29 58 35 10 92 -1 107 -20z"/>
<path d="M1940 1185 l0 -85 70 0 c74 0 123 17 134 45 13 35 6 76 -19 100 -22 22 -32 25 -105 25 l-80 0 0 -85z m152 28 c10 -9 18 -22 18 -29 0 -23 -46 -45 -87 -42 -33 3 -38 6 -41 31 -2 16 -1 35 2 43 8 20 85 18 108 -3z"/>
</g>
</svg>