<?xml version="1.0" standalone="no"?>
<!DOCTYPE svg PUBLIC "-//W3C//DTD SVG 20010904//EN"
 "http://www.w3.org/TR/2001/REC-SVG-20010904/DTD/svg10.dtd">
<svg version="1.0" xmlns="http://www.w3.org/2000/svg"
 width="2000.000000pt" height="1500.000000pt" viewBox="0 0 2000.000000 1500.000000"
 preserveAspectRatio="xMidYMid meet">

<g transform="translate(0.000000,1500.000000) scale(0.100000,-0.100000)"
fill="white" stroke="none">
<path d="M0 7500 l0 -7500 10000 0 10000 0 0 7500 0 7500 -10000 0 -10000 0 0
-7500z m7060 3044 c836 -60 1492 -259 2013 -611 484 -326 821 -802 961 -1357
19 -72 37 -147 40 -167 l6 -37 -47 -12 c-44 -11 -1303 -308 -2342 -553 l-434
-102 1386 -3 1387 -2 0 -1130 0 -1130 -1395 0 -1395 0 -1 1123 c-1 617 0 1127
1 1132 2 6 10 37 18 70 25 94 21 284 -6 359 -33 90 -65 137 -138 206 -154 144
-408 212 -734 196 -230 -11 -374 -51 -510 -141 -81 -54 -131 -108 -171 -187
-135 -265 -33 -549 245 -683 165 -79 365 -113 608 -101 321 16 493 72 626 206
52 52 55 53 48 25 -11 -44 -379 -1413 -507 -1885 -61 -223 -114 -409 -118
-413 -11 -11 -234 -44 -395 -58 -171 -15 -686 -6 -866 15 -641 76 -1166 276
-1590 604 -109 85 -297 273 -382 382 -239 309 -399 671 -472 1074 -64 348 -62
750 5 1080 228 1124 1191 1873 2659 2065 459 60 981 72 1500 35z m7675 -197
c477 -58 801 -149 1146 -323 382 -191 706 -487 918 -837 68 -112 162 -310 201
-422 44 -126 95 -329 117 -465 25 -163 25 -587 0 -747 -86 -538 -302 -975
-660 -1334 -182 -184 -388 -329 -642 -453 -264 -130 -497 -206 -800 -261 -345
-62 -228 -59 -2557 -62 l-2128 -4 0 2466 0 2466 2133 -4 c1936 -3 2145 -5
2272 -20z"/>
<path d="M12930 7905 l0 -576 463 3 c514 5 515 5 657 76 329 164 403 628 141
891 -42 43 -92 80 -137 104 -131 68 -146 69 -661 74 l-463 5 0 -577z"/>
</g>
</svg>
